<svg id="svg3336" xmlns="http://www.w3.org/2000/svg" viewBox="0 0 453.75 213.75"><defs><style>.cls-1,.cls-10,.cls-11,.cls-12,.cls-13,.cls-14,.cls-15,.cls-16,.cls-17,.cls-19,.cls-2,.cls-22,.cls-24,.cls-25,.cls-26,.cls-4,.cls-5,.cls-6,.cls-7,.cls-8,.cls-9{fill:none;}.cls-1,.cls-10,.cls-11,.cls-12,.cls-13,.cls-14,.cls-15,.cls-16,.cls-17,.cls-18,.cls-19,.cls-2,.cls-5,.cls-6,.cls-7,.cls-8,.cls-9{stroke:#000;}.cls-1{stroke-width:0.7px;}.cls-2{stroke-width:0.7px;}.cls-20,.cls-21,.cls-23,.cls-3{fill-rule:evenodd;}.cls-5{stroke-width:0.5px;}.cls-6{stroke-width:0.53px;}.cls-7{stroke-width:0.54px;}.cls-8{stroke-width:0.5px;}.cls-9{stroke-width:0.5px;}.cls-10{stroke-width:0.52px;}.cls-11{stroke-width:0.55px;}.cls-12{stroke-width:0.76px;}.cls-13{stroke-width:0.66px;}.cls-14{stroke-width:0.5px;}.cls-18{stroke-width:3.9px;}.cls-19{stroke-width:0.45px;}.cls-20{fill:#fefefe;}.cls-21{fill:#00a3d3;}.cls-22{stroke:#00a3d3;stroke-width:4.62px;}.cls-22,.cls-24,.cls-25,.cls-26{stroke-miterlimit:10;}.cls-23{fill:#141515;}.cls-24{stroke:#fefefe;}.cls-24,.cls-26{stroke-width:0.74px;}.cls-25,.cls-26{stroke:#141515;}.cls-25{stroke-width:0.32px;}.cls-27{fill:#ce1317;}</style></defs><title>Монтажная область 1</title><g id="layer3"><g id="g6458"><g id="g4612"><path id="path4601" class="cls-1" d="M47.46,204.38h6.1c.32.39,1.28.86,0,2.21h-6.1C46.51,205.58,46.87,204.87,47.46,204.38Z"/><path id="path4603" class="cls-2" d="M47.3,160.38h6.39c.33.25,1.34.54,0,1.4H47.3C46.31,161.14,46.68,160.69,47.3,160.38Z"/><path id="path4607" class="cls-2" d="M47.31,158.47h6.4c.81,0,3.1-.37,0,1.75h-6.4C46.68,159.69,44.77,158.32,47.31,158.47Z"/><path id="path4599" class="cls-1" d="M47.5,162.21v42.17h6.13v-42.5H47.5Z"/></g><g id="g4618"><path id="path4620" class="cls-1" d="M27.46,204.38h6.1c.32.39,1.28.86,0,2.21h-6.1C26.51,205.58,26.87,204.87,27.46,204.38Z"/><path id="path4622" class="cls-2" d="M27.3,160.38h6.39c.33.25,1.34.54,0,1.4H27.3C26.31,161.14,26.68,160.69,27.3,160.38Z"/><path id="path4624" class="cls-2" d="M27.31,158.47h6.4c.81,0,3.1-.37,0,1.75h-6.4C26.68,159.69,24.77,158.32,27.31,158.47Z"/><path id="path4626" class="cls-1" d="M27.5,162.21v42.17h6.13v-42.5H27.5Z"/></g><g id="g4628"><path id="path4630" class="cls-1" d="M11.46,204.38h6.1c.32.39,1.28.86,0,2.21h-6.1C10.51,205.58,10.87,204.87,11.46,204.38Z"/><path id="path4632" class="cls-2" d="M11.3,160.38h6.39c.33.25,1.34.54,0,1.4H11.3C10.31,161.14,10.68,160.69,11.3,160.38Z"/><path id="path4634" class="cls-2" d="M11.31,158.47h6.4c.81,0,3.1-.37,0,1.75h-6.4C10.68,159.69,8.77,158.32,11.31,158.47Z"/><path id="path4636" class="cls-1" d="M11.5,162.21v42.17h6.13v-42.5H11.5Z"/></g><g id="g4638"><path id="path4640" class="cls-1" d="M63.46,204.38h6.1c.32.39,1.28.86,0,2.21h-6.1C62.51,205.58,62.87,204.87,63.46,204.38Z"/><path id="path4642" class="cls-2" d="M63.3,160.38h6.39c.33.25,1.34.54,0,1.4H63.3C62.31,161.14,62.68,160.69,63.3,160.38Z"/><path id="path4644" class="cls-2" d="M63.31,158.47h6.4c.81,0,3.1-.37,0,1.75h-6.4C62.68,159.69,60.77,158.32,63.31,158.47Z"/><path id="path4646" class="cls-1" d="M63.5,162.21v42.17h6.13v-42.5H63.5Z"/></g><g id="g4648"><path id="path4650" class="cls-1" d="M83.46,204.38h6.1c.32.39,1.28.86,0,2.21h-6.1C82.51,205.58,82.87,204.87,83.46,204.38Z"/><path id="path4652" class="cls-2" d="M83.3,160.38h6.39c.33.25,1.34.54,0,1.4H83.3C82.31,161.14,82.68,160.69,83.3,160.38Z"/><path id="path4654" class="cls-2" d="M83.31,158.47h6.4c.81,0,3.1-.37,0,1.75h-6.4C82.68,159.69,80.77,158.32,83.31,158.47Z"/><path id="path4656" class="cls-1" d="M83.5,162.21v42.17h6.13v-42.5H83.5Z"/></g><g id="g4658"><path id="path4660" class="cls-1" d="M103.46,204.38h6.1c.32.39,1.28.86,0,2.21h-6.1C102.51,205.58,102.87,204.87,103.46,204.38Z"/><path id="path4662" class="cls-2" d="M103.3,160.38h6.39c.33.25,1.34.54,0,1.4H103.3C102.31,161.14,102.68,160.69,103.3,160.38Z"/><path id="path4664" class="cls-2" d="M103.31,158.47h6.4c.81,0,3.1-.37,0,1.75h-6.4C102.68,159.69,100.77,158.32,103.31,158.47Z"/><path id="path4666" class="cls-1" d="M103.5,162.21v42.17h6.13v-42.5H103.5Z"/></g><g id="g4668"><path id="path4670" class="cls-1" d="M121.46,204.38h6.1c.32.39,1.28.86,0,2.21h-6.1C120.51,205.58,120.87,204.87,121.46,204.38Z"/><path id="path4672" class="cls-2" d="M121.3,160.38h6.39c.33.25,1.34.54,0,1.4H121.3C120.31,161.14,120.68,160.69,121.3,160.38Z"/><path id="path4674" class="cls-2" d="M121.31,158.47h6.4c.81,0,3.1-.37,0,1.75h-6.4C120.68,159.69,118.77,158.32,121.31,158.47Z"/><path id="path4676" class="cls-1" d="M121.5,162.21v42.17h6.13v-42.5H121.5Z"/></g><g id="g4678"><path id="path4680" class="cls-1" d="M139.46,204.38h6.1c.32.39,1.28.86,0,2.21h-6.1C138.51,205.58,138.87,204.87,139.46,204.38Z"/><path id="path4682" class="cls-2" d="M139.3,160.38h6.39c.33.25,1.34.54,0,1.4H139.3C138.31,161.14,138.68,160.69,139.3,160.38Z"/><path id="path4684" class="cls-2" d="M139.31,158.47h6.4c.81,0,3.1-.37,0,1.75h-6.4C138.68,159.69,136.77,158.32,139.31,158.47Z"/><path id="path4686" class="cls-1" d="M139.5,162.21v42.17h6.13v-42.5H139.5Z"/></g><g id="g4688"><path id="path4690" class="cls-1" d="M159.46,204.38h6.1c.32.39,1.28.86,0,2.21h-6.1C158.51,205.58,158.87,204.87,159.46,204.38Z"/><path id="path4692" class="cls-2" d="M159.3,160.38h6.39c.33.25,1.34.54,0,1.4H159.3C158.31,161.14,158.68,160.69,159.3,160.38Z"/><path id="path4694" class="cls-2" d="M159.31,158.47h6.4c.81,0,3.1-.37,0,1.75h-6.4C158.68,159.69,156.77,158.32,159.31,158.47Z"/><path id="path4696" class="cls-1" d="M159.5,162.21v42.17h6.13v-42.5H159.5Z"/></g><g id="g4871"><path id="path4849" class="cls-1" d="M177.46,204.38h6.1c.32.39,1.28.86,0,2.21h-6.1C176.51,205.58,176.87,204.87,177.46,204.38Z"/><path id="path4851" class="cls-2" d="M177.3,165.93h6.39c.33.24,1.34.54,0,1.4H177.3C176.31,166.68,176.68,166.23,177.3,165.93Z"/><path id="path4855" class="cls-1" d="M177.5,167.65v36.73h6.13v-37H177.5Z"/><path id="path4865" class="cls-1" d="M176.77,165.67c-.63-.06-1.9-1.67.17-4.51.71-1-1.47,1.06-2.12-1.11s6-2.73,3.49,2.92l1.87-.07,1.86,0c-2.52-5.65,4.09-5,3.49-2.92s-2.83.13-2.12,1.1c2.07,2.85.8,4.45.17,4.51l-3.4.33Z"/><ellipse id="path4867" class="cls-1" cx="180.09" cy="160.61" rx="0.97" ry="2.01"/><path id="rect4869" class="cls-1" d="M178.77,163h2.85a.83.83,0,0,1,.83.83h0a.83.83,0,0,1-.83.83h-2.85a.83.83,0,0,1-.83-.83h0A.83.83,0,0,1,178.77,163Z"/></g><g id="g4879"><path id="path4881" class="cls-1" d="M195.46,204.38h6.1c.32.39,1.28.86,0,2.21h-6.1C194.51,205.58,194.87,204.87,195.46,204.38Z"/><path id="path4883" class="cls-2" d="M195.3,165.93h6.39c.33.24,1.34.54,0,1.4H195.3C194.31,166.68,194.68,166.23,195.3,165.93Z"/><path id="path4885" class="cls-1" d="M195.5,167.65v36.73h6.13v-37H195.5Z"/><path id="path4887" class="cls-1" d="M194.77,165.67c-.63-.06-1.9-1.67.17-4.51.71-1-1.47,1.06-2.12-1.11s6-2.73,3.49,2.92l1.87-.07,1.86,0c-2.52-5.65,4.09-5,3.49-2.92s-2.83.13-2.12,1.1c2.07,2.85.8,4.45.17,4.51l-3.4.33Z"/><ellipse id="ellipse4889" class="cls-1" cx="198.09" cy="160.61" rx="0.97" ry="2.01"/><path id="rect4891" class="cls-1" d="M196.58,162.9h2.85a.83.83,0,0,1,.83.83h0a.83.83,0,0,1-.83.83h-2.85a.83.83,0,0,1-.83-.83h0A.83.83,0,0,1,196.58,162.9Z"/></g><g id="g4893"><path id="path4895" class="cls-1" d="M213.46,204.38h6.1c.32.39,1.28.86,0,2.21h-6.1C212.51,205.58,212.87,204.87,213.46,204.38Z"/><path id="path4897" class="cls-2" d="M213.3,165.93h6.39c.33.24,1.34.54,0,1.4H213.3C212.31,166.68,212.68,166.23,213.3,165.93Z"/><path id="path4899" class="cls-1" d="M213.5,167.65v36.73h6.13v-37H213.5Z"/><path id="path4901" class="cls-1" d="M212.77,165.67c-.63-.06-1.9-1.67.17-4.51.71-1-1.47,1.06-2.12-1.11s6-2.73,3.49,2.92l1.87-.07,1.86,0c-2.52-5.65,4.09-5,3.49-2.92s-2.83.13-2.12,1.1c2.07,2.85.8,4.45.17,4.51l-3.4.33Z"/><ellipse id="ellipse4903" class="cls-1" cx="216.09" cy="160.61" rx="0.97" ry="2.01"/><path id="rect4905" class="cls-1" d="M214.64,162.9h2.85a.83.83,0,0,1,.83.83h0a.83.83,0,0,1-.83.83h-2.85a.83.83,0,0,1-.82-.83h0A.83.83,0,0,1,214.64,162.9Z"/></g><g id="g5103"><g id="g4957"><rect id="rect4949" x="37.74" y="158.77" width="5.13" height="7.6" rx="0.83"/><rect id="rect4951" x="37.74" y="172.77" width="5.13" height="7.6" rx="0.83"/><rect id="rect4953" x="37.65" y="184.01" width="5.13" height="7.6" rx="0.83"/><rect id="rect4955" x="37.65" y="196.01" width="5.13" height="7.6" rx="0.83"/></g><g id="g4963"><rect id="rect4965" x="93.07" y="158.77" width="7.21" height="7.31"/><rect id="rect4967" x="93.07" y="172.88" width="7.21" height="7.66"/><rect id="rect4969" x="92.95" y="183.68" width="7.21" height="7.66"/><rect id="rect4971" x="92.86" y="195.68" width="7.21" height="7.66"/></g><g id="g4973"><rect id="rect4975" x="112.87" y="158.77" width="6" height="7.6"/><rect id="rect4977" x="112.87" y="172.77" width="6" height="7.6"/><rect id="rect4979" x="112.77" y="184.01" width="6" height="7.6"/><rect id="rect4981" x="112.77" y="196.01" width="6" height="7.6"/></g><g id="g4983"><rect id="rect4985" x="130.87" y="158.77" width="6" height="7.6"/><rect id="rect4987" x="130.87" y="172.77" width="6" height="7.6"/><rect id="rect4989" x="130.77" y="184.01" width="6" height="7.6"/><path id="rect4991" d="M131.74,196h4.06a.9.9,0,0,1,1,.83v5.94a.9.9,0,0,1-1,.83h-4.06a.9.9,0,0,1-1-.83v-5.94A.9.9,0,0,1,131.74,196Z"/></g><g id="g4993"><rect id="rect4995" x="149.07" y="158.77" width="7.21" height="7.66"/><rect id="rect4997" x="149.07" y="172.88" width="7.21" height="7.66"/><rect id="rect4999" x="148.86" y="183.56" width="7.21" height="7.66"/><rect id="rect5001" x="148.97" y="195.77" width="7.21" height="7.66"/></g><g id="g5003"><path id="rect5005" d="M169.84,158.77h4.06a.91.91,0,0,1,1,.83v6a.91.91,0,0,1-1,.82h-4.06a.91.91,0,0,1-1-.82v-6A.91.91,0,0,1,169.84,158.77Z"/><rect id="rect5007" x="168.87" y="172.77" width="6" height="7.6"/><rect id="rect5009" x="168.77" y="184.01" width="6" height="7.6"/><rect id="rect5011" x="168.77" y="196.01" width="6" height="7.6"/><rect id="rect5753" x="165.99" y="203.32" width="0.18" height="0.09"/></g><g id="g5708"><rect id="rect5710" x="73.07" y="158.77" width="7.21" height="7.66"/><rect id="rect5712" x="73.07" y="172.88" width="7.21" height="7.66"/><rect id="rect5714" x="72.95" y="184.21" width="7.21" height="7.66"/><path id="rect5716" d="M74.11,196.3H79c.65,0,1.17.38,1.17.84v6c0,.46-.52.83-1.17.83H74.11c-.64,0-1.16-.37-1.16-.83v-6C73,196.68,73.47,196.3,74.11,196.3Z"/></g></g><g id="g5013"><path id="rect5015" d="M186,158.77h4.77c.62,0,1.13.38,1.13.84v6c0,.46-.51.83-1.13.83H186c-.63,0-1.13-.37-1.13-.83v-6C184.84,159.15,185.34,158.77,186,158.77Z"/><rect id="rect5017" x="184.84" y="172.88" width="7.04" height="7.66"/><rect id="rect5019" x="184.71" y="183.9" width="7.04" height="7.66"/><rect id="rect5021" x="184.8" y="195.82" width="7.04" height="7.66"/></g><g id="g5023"><rect id="rect5025" x="203.1" y="158.77" width="8.78" height="7.66"/><rect id="rect5027" x="203.1" y="172.88" width="8.78" height="7.66"/><rect id="rect5029" x="203.01" y="183.71" width="8.78" height="7.66"/><rect id="rect5031" x="202.95" y="195.62" width="8.78" height="7.66"/><path id="path5793" class="cls-3" d="M211.34,163l.85-.44.87-1.18-2.93-.16.28,1.19"/><path id="path5795" class="cls-3" d="M215,159.78l-1.22-1.25,1.47-.12-.09,1.15"/><path id="path5797" class="cls-3" d="M217.34,159.84l-.71-1.37,1.37-.09.13.75"/><path id="path5799" class="cls-4" d="M217.75,162.84l-1.25,0s.13-1,.25-1a2.87,2.87,0,0,0,.44-.69l.59,1.1,0,.37"/><path id="path5803" class="cls-3" d="M221.5,160.72l-2.41.34,1.16,1.66.13,2.06-.72,1,.56.41,2.59-.22-.87-4.69"/></g><g id="g5033"><path id="rect5035" d="M223.39,158.43h9.11c1.2,0,2.18.37,2.18.83v6c0,.47-1,.84-2.18.84h-9.11c-1.21,0-2.18-.37-2.18-.84v-6C221.21,158.8,222.18,158.43,223.39,158.43Z"/><rect id="rect5037" x="220.43" y="172.54" width="14.25" height="7.66"/><rect id="rect5039" x="220.98" y="183.87" width="13.47" height="7.66"/></g><g id="g5205"><rect id="rect5199" x="71.56" y="206.68" width="103.59" height="5.21"/><rect id="rect5201" x="176.33" y="206.68" width="28.81" height="5.21"/><rect id="rect5203" x="9.56" y="206.68" width="60.88" height="5.21"/></g><path id="path5218" class="cls-5" d="M33.63,203.38H47.38"/><path id="path5220" class="cls-5" d="M33.75,191.38H47.5"/><path id="path5222" class="cls-5" d="M33.73,180.4l13.65,0"/><path id="path5224" class="cls-5" d="M33.47,166.1l13.66,0"/><g id="g5252"><path id="path5236" class="cls-5" d="M89.63,203.38h13.75"/><path id="path5238" class="cls-5" d="M89.75,191.38H103.5"/><path id="path5240" class="cls-5" d="M90,180.38h13.38"/><path id="path5242" class="cls-5" d="M89.25,166.13h13.88"/></g><g id="g5258"><path id="path5260" class="cls-6" d="M109.53,203.38h11.86"/><path id="path5262" class="cls-6" d="M109.29,191.38H121.5"/><path id="path5264" class="cls-6" d="M109.51,180.38h11.88"/><path id="path5266" class="cls-6" d="M109.46,166.13l12.24.08"/></g><g id="g5268"><path id="path5270" class="cls-7" d="M127.69,203.38h11.7"/><path id="path5272" class="cls-7" d="M127.8,191.39h11.7"/><path id="path5274" class="cls-7" d="M127.67,180.4h11.72"/><path id="path5276" class="cls-7" d="M127.37,166.17h11.81"/></g><g id="g5278"><path id="path5280" class="cls-8" d="M145.4,203.38h13.74"/><path id="path5282" class="cls-8" d="M145.35,191.43h13.92"/><path id="path5284" class="cls-8" d="M145.6,180.48h13.54"/><path id="path5286" class="cls-9" d="M145.47,166.3h13.95"/></g><g id="g5288"><path id="path5290" class="cls-10" d="M165.43,203.38h11.91"/><path id="path5292" class="cls-10" d="M165.37,191.38h11.9"/><path id="path5294" class="cls-10" d="M165.44,180.38l12,.06"/><path id="path5296" class="cls-10" d="M165.36,166.13l11.52.06"/></g><g id="g5298"><path id="path5300" class="cls-11" d="M183.92,203.38h11.53"/><path id="path5302" class="cls-11" d="M184,191.38h11.54"/><path id="path5304" class="cls-11" d="M184.23,180.38h11.22"/><path id="path5306" class="cls-12" d="M184,166.12H195"/></g><g id="g5308"><path id="path5310" class="cls-11" d="M201.92,203.38h11.53"/><path id="path5312" class="cls-11" d="M201.63,191.4l11.93,0"/><path id="path5314" class="cls-11" d="M201.7,180.31l11.75.07"/><path id="path5316" class="cls-13" d="M202.11,166.12l10.73.08"/></g><path id="path5320" class="cls-5" d="M220.07,203.38l15.82,0"/><path id="path5322" class="cls-5" d="M220.23,191.38l15.41.13"/><path id="path5324" class="cls-5" d="M220.54,180.38l15.32,0"/><path id="path5326" class="cls-5" d="M219.6,166.13h17.32"/><path id="path5759" class="cls-3" d="M149.55,166.29l-4,.06.35-1.68,3.93.38"/><path id="path5763" class="cls-3" d="M135.43,166l4,.22-.07-4.4-.75-.69.37-.81-.7-.82-1-.62-1.33.27-.66,4.3Z"/><path id="path5765" class="cls-3" d="M131.68,166.13l-4.05-.2.07-4,1-.92-.92-.87,1.19-1,3.18-.22-.15,4.6"/><path id="path5767" class="cls-3" d="M118.09,166.09h3.32l.12-4.18-.87-.57.37-.84-1.12-1.66-1.75-.09-.78,4.69"/><path id="path5769" class="cls-3" d="M113.38,166.22l-3.88-.16,0-3.84.87-1-.59-.94,1.53-1.28,2-.09.06,6.62"/><path id="path5771" class="cls-3" d="M93.82,158.73,91,159l-1.28,1.41.66.4-.22.71-.48.44,0,4.33,5.26-.22-.93-7.11"/><path id="path5773" class="cls-3" d="M99.7,159.08l2-.09,1.1,1,0,.57.13.89.49.62,0,4.33-5.17-.36-.79-6.62h.44"/><path id="path5775" class="cls-3" d="M94.75,161.69l7.52-1.86.75.4-3.45.93-3.36,2.47"/><rect id="rect5718" x="68.63" y="158.5" width="3.53" height="48.44"/><path id="path5731" class="cls-3" d="M192.91,158.64l-2.39.53-.18,2.48.31,2.78v1.41l4.42.09-1.37-1.41.22-1.37.93-2-1-.22-1.07-.88,0-.88.35-.4"/><path id="path5735" class="cls-3" d="M203.81,161l-2.37.13,1.08,2.67-.64,1.78-.25.36,2.46.06.08-3.23"/><path id="path5755" class="cls-3" d="M150.13,159.44l-2.07-.72L146.22,160l-.22.56.31.53-.53.82-.06,4.12,5.12,0Z"/><rect id="rect5658" x="226.13" y="196.31" width="5.31" height="10.19"/><path id="path5660" class="cls-5" d="M204.69,207.91h49v-1.32"/><path id="path5662" class="cls-5" d="M203.09,209.91h52.69"/><path id="path5664" class="cls-14" d="M205.08,211.64h49.73"/><path id="path5668" class="cls-15" d="M237.41,134.38H217.08v5.3H199.76v1.77h-3v4.06H177.48v5.66h-.7"/><path id="path5672" class="cls-5" d="M236.7,151H6.19a3.12,3.12,0,0,0,0,3.19h231"/><path id="path5676" class="cls-14" d="M200,141.7h17.34v-3"/><path id="path5680" class="cls-5" d="M217.44,136.5h20.28"/><path id="path5684" class="cls-5" d="M176.63,151.13v7.18"/><path id="path5686" class="cls-5" d="M10,154.25v4.43"/><path id="path5690" class="cls-16" d="M18.89,158.62l7.56,0"/><path id="path5692" class="cls-17" d="M35.12,158.7H46.37"/><path id="path5694" class="cls-15" d="M55.15,158.59l-.14.07,7.52,0"/><path id="path5696" class="cls-15" d="M91.13,158.86h10.78"/><path id="path5698" class="cls-15" d="M111.21,158.73h9.11"/><path id="path5700" class="cls-15" d="M128.87,158.77h9.27"/><path id="path5702" class="cls-15" d="M147,158.69h11.19"/><path id="path5706" class="cls-15" d="M167.14,158.68h70.18"/><rect id="rect5724" class="cls-18" x="37.7" y="146.96" width="139.52" height="2.3"/><path id="path5726" class="cls-3" d="M35.78,145,6.36,151.18H40.29Z"/><path id="path5729" class="cls-15" d="M71.13,158.86H81.91"/><path id="path5739" class="cls-3" d="M169.28,166.06l-3.72,0,0-4.28.78-.44-.28-.84-.37-.37,2.18-1.41,2.6.47.12,4.09"/><path id="path5741" class="cls-3" d="M174.34,160.63l2.32.59-.32,1.12-.5,1.94.85,1.53-.22.41-3.41-.56.35-3.19"/><path id="path5743" class="cls-3" d="M155.69,166.22l3.62,0-.18-4.41-.54-.75.66-.75-1.69-1.5-1.93.31Z"/><path id="path5747" class="cls-15" d="M156.08,165.94h3.3"/><path id="path5749" class="cls-15" d="M159.45,162.78l-1-.55.38-.58.77.4"/><path id="path5789" class="cls-3" d="M210.21,166.11l2.58-.09-1.06-.91-1.54,0"/><path id="path5791" class="cls-3" d="M185.53,161.06l-2.56-.12.91,1.47.65,1.22-.5,2-.5.34s1.1.31,1.25.31a30.07,30.07,0,0,0,1.85-3"/><path id="path5807" class="cls-3" d="M203.91,165.84,203.82,208l-2,2.13v-4.07l.35-.88-.79-1.06-.09-36.77,1.15-.29a2.63,2.63,0,0,0-.11-.58,13.08,13.08,0,0,1-.24-1.32,14.31,14.31,0,0,0,.86-1.22,1.34,1.34,0,0,1,1.12-.46,8.24,8.24,0,0,1,1.55,1L205,166l-.55-.15"/><path id="path6452" class="cls-3" d="M186.5,165l-.35,44.28-2-1.06-.18-2.47-.61-1.51.35-36.59-.09-.71s.53,0,.53-.35a5.74,5.74,0,0,0-.26-1.15l1-1.68"/><path id="path6454" class="cls-3" d="M221.25,166l-.19,40.06-1.12-.25-.69-1.62.38-36.81.56-.88.69-1.19"/></g><g id="g6682"><path id="path6684" class="cls-1" d="M407.82,204.38h-6.1c-.31.39-1.27.86,0,2.21h6.1C408.78,205.58,408.42,204.87,407.82,204.38Z"/><path id="path6686" class="cls-2" d="M408,160.38H401.6c-.33.25-1.34.54,0,1.4H408C409,161.14,408.6,160.69,408,160.38Z"/><path id="path6688" class="cls-2" d="M408,158.47h-6.4c-.81,0-3.1-.37,0,1.75H408C408.6,159.69,410.51,158.32,408,158.47Z"/><path id="path6690" class="cls-1" d="M407.79,162.21v42.17h-6.13v-42.5h6.13Z"/></g><g id="g6692"><path id="path6694" class="cls-1" d="M427.82,204.38h-6.1c-.31.39-1.27.86,0,2.21h6.1C428.78,205.58,428.42,204.87,427.82,204.38Z"/><path id="path6696" class="cls-2" d="M428,160.38H421.6c-.33.25-1.34.54,0,1.4H428C429,161.14,428.6,160.69,428,160.38Z"/><path id="path6698" class="cls-2" d="M428,158.47h-6.4c-.81,0-3.1-.37,0,1.75H428C428.6,159.69,430.51,158.32,428,158.47Z"/><path id="path6700" class="cls-1" d="M427.79,162.21v42.17h-6.13v-42.5h6.13Z"/></g><g id="g6702"><path id="path6704" class="cls-1" d="M443.82,204.38h-6.1c-.31.39-1.27.86,0,2.21h6.1C444.78,205.58,444.42,204.87,443.82,204.38Z"/><path id="path6706" class="cls-2" d="M444,160.38H437.6c-.33.25-1.34.54,0,1.4H444C445,161.14,444.6,160.69,444,160.38Z"/><path id="path6708" class="cls-2" d="M444,158.47h-6.4c-.81,0-3.1-.37,0,1.75H444C444.6,159.69,446.51,158.32,444,158.47Z"/><path id="path6710" class="cls-1" d="M443.79,162.21v42.17h-6.13v-42.5h6.13Z"/></g><g id="g6712"><path id="path6714" class="cls-1" d="M391.82,204.38h-6.1c-.31.39-1.27.86,0,2.21h6.1C392.78,205.58,392.42,204.87,391.82,204.38Z"/><path id="path6716" class="cls-2" d="M392,160.38H385.6c-.33.25-1.34.54,0,1.4H392C393,161.14,392.6,160.69,392,160.38Z"/><path id="path6718" class="cls-2" d="M392,158.47h-6.4c-.81,0-3.1-.37,0,1.75H392C392.6,159.69,394.51,158.32,392,158.47Z"/><path id="path6720" class="cls-1" d="M391.79,162.21v42.17h-6.13v-42.5h6.13Z"/></g><g id="g6722"><path id="path6724" class="cls-1" d="M371.82,204.38h-6.1c-.31.39-1.27.86,0,2.21h6.1C372.78,205.58,372.42,204.87,371.82,204.38Z"/><path id="path6726" class="cls-2" d="M372,160.38H365.6c-.33.25-1.34.54,0,1.4H372C373,161.14,372.6,160.69,372,160.38Z"/><path id="path6728" class="cls-2" d="M372,158.47h-6.4c-.81,0-3.1-.37,0,1.75H372C372.6,159.69,374.51,158.32,372,158.47Z"/><path id="path6730" class="cls-1" d="M371.79,162.21v42.17h-6.13v-42.5h6.13Z"/></g><g id="g6732"><path id="path6734" class="cls-1" d="M351.82,204.38h-6.1c-.31.39-1.27.86,0,2.21h6.1C352.78,205.58,352.42,204.87,351.82,204.38Z"/><path id="path6736" class="cls-2" d="M352,160.38H345.6c-.33.25-1.34.54,0,1.4H352C353,161.14,352.6,160.69,352,160.38Z"/><path id="path6738" class="cls-2" d="M352,158.47h-6.4c-.81,0-3.1-.37,0,1.75H352C352.6,159.69,354.51,158.32,352,158.47Z"/><path id="path6740" class="cls-1" d="M351.79,162.21v42.17h-6.13v-42.5h6.13Z"/></g><g id="g6742"><path id="path6744" class="cls-1" d="M333.82,204.38h-6.1c-.31.39-1.27.86,0,2.21h6.1C334.78,205.58,334.42,204.87,333.82,204.38Z"/><path id="path6746" class="cls-2" d="M334,160.38H327.6c-.33.25-1.34.54,0,1.4H334C335,161.14,334.6,160.69,334,160.38Z"/><path id="path6748" class="cls-2" d="M334,158.47h-6.4c-.81,0-3.1-.37,0,1.75H334C334.6,159.69,336.51,158.32,334,158.47Z"/><path id="path6750" class="cls-1" d="M333.79,162.21v42.17h-6.13v-42.5h6.13Z"/></g><g id="g6752"><path id="path6754" class="cls-1" d="M315.82,204.38h-6.1c-.31.39-1.27.86,0,2.21h6.1C316.78,205.58,316.42,204.87,315.82,204.38Z"/><path id="path6756" class="cls-2" d="M316,160.38H309.6c-.33.25-1.34.54,0,1.4H316C317,161.14,316.6,160.69,316,160.38Z"/><path id="path6758" class="cls-2" d="M316,158.47h-6.4c-.81,0-3.1-.37,0,1.75H316C316.6,159.69,318.51,158.32,316,158.47Z"/><path id="path6760" class="cls-1" d="M315.79,162.21v42.17h-6.13v-42.5h6.13Z"/></g><g id="g6762"><path id="path6764" class="cls-1" d="M295.82,204.38h-6.1c-.31.39-1.27.86,0,2.21h6.1C296.78,205.58,296.42,204.87,295.82,204.38Z"/><path id="path6766" class="cls-2" d="M296,160.38H289.6c-.33.25-1.34.54,0,1.4H296C297,161.14,296.6,160.69,296,160.38Z"/><path id="path6768" class="cls-2" d="M296,158.47h-6.4c-.81,0-3.1-.37,0,1.75H296C296.6,159.69,298.51,158.32,296,158.47Z"/><path id="path6770" class="cls-1" d="M295.79,162.21v42.17h-6.13v-42.5h6.13Z"/></g><g id="g6772"><path id="path6774" class="cls-1" d="M277.82,204.38h-6.1c-.31.39-1.27.86,0,2.21h6.1C278.78,205.58,278.42,204.87,277.82,204.38Z"/><path id="path6776" class="cls-2" d="M278,165.93H271.6c-.33.24-1.34.54,0,1.4H278C279,166.68,278.6,166.23,278,165.93Z"/><path id="path6778" class="cls-1" d="M277.79,167.65v36.73h-6.13v-37h6.13Z"/><path id="path6780" class="cls-1" d="M278.52,165.67c.63-.06,1.9-1.67-.18-4.51-.71-1,1.47,1.06,2.12-1.11s-6-2.73-3.49,2.92l-1.86-.07-1.86,0c2.52-5.65-4.1-5-3.49-2.92s2.83.13,2.12,1.1c-2.08,2.85-.81,4.45-.18,4.51l3.41.33Z"/><ellipse id="ellipse6782" class="cls-1" cx="275.19" cy="160.61" rx="0.97" ry="2.01"/><path id="rect6784" class="cls-1" d="M276.52,163h-2.85a.83.83,0,0,0-.83.83h0a.83.83,0,0,0,.83.83h2.85a.83.83,0,0,0,.83-.83h0A.83.83,0,0,0,276.52,163Z"/></g><g id="g6786"><path id="path6788" class="cls-1" d="M259.82,204.38h-6.1c-.31.39-1.27.86,0,2.21h6.1C260.78,205.58,260.42,204.87,259.82,204.38Z"/><path id="path6790" class="cls-2" d="M260,165.93H253.6c-.33.24-1.34.54,0,1.4H260C261,166.68,260.6,166.23,260,165.93Z"/><path id="path6792" class="cls-1" d="M259.79,167.65v36.73h-6.13v-37h6.13Z"/><path id="path6794" class="cls-1" d="M260.52,165.67c.63-.06,1.9-1.67-.18-4.51-.71-1,1.47,1.06,2.12-1.11s-6-2.73-3.49,2.92l-1.86-.07-1.86,0c2.52-5.65-4.1-5-3.49-2.92s2.83.13,2.12,1.1c-2.08,2.85-.81,4.45-.18,4.51l3.41.33Z"/><ellipse id="ellipse6796" class="cls-1" cx="257.19" cy="160.61" rx="0.97" ry="2.01"/><path id="rect6798" class="cls-1" d="M258.7,162.9h-2.85a.83.83,0,0,0-.82.83h0a.83.83,0,0,0,.82.83h2.85a.83.83,0,0,0,.83-.83h0A.83.83,0,0,0,258.7,162.9Z"/></g><g id="g6800"><path id="path6802" class="cls-1" d="M241.82,204.38h-6.1c-.31.39-1.27.86,0,2.21h6.1C242.78,205.58,242.42,204.87,241.82,204.38Z"/><path id="path6804" class="cls-2" d="M242,165.93H235.6c-.33.24-1.34.54,0,1.4H242C243,166.68,242.6,166.23,242,165.93Z"/><path id="path6806" class="cls-1" d="M241.79,167.65v36.73h-6.13v-37h6.13Z"/><path id="path6808" class="cls-1" d="M242.52,165.67c.63-.06,1.9-1.67-.18-4.51-.71-1,1.47,1.06,2.12-1.11s-6-2.73-3.49,2.92l-1.86-.07-1.86,0c2.52-5.65-4.1-5-3.49-2.92s2.83.13,2.12,1.1c-2.08,2.85-.81,4.45-.18,4.51l3.41.33Z"/><ellipse id="ellipse6810" class="cls-1" cx="239.19" cy="160.61" rx="0.97" ry="2.01"/><path id="rect6812" class="cls-1" d="M240.64,162.9h-2.85a.83.83,0,0,0-.83.83h0a.83.83,0,0,0,.83.83h2.85a.83.83,0,0,0,.83-.83h0A.83.83,0,0,0,240.64,162.9Z"/></g><g id="g6814"><g id="g6816"><rect id="rect6818" x="412.42" y="158.77" width="5.13" height="7.6" rx="0.83"/><rect id="rect6820" x="412.42" y="172.77" width="5.13" height="7.6" rx="0.83"/><rect id="rect6822" x="412.51" y="184.01" width="5.13" height="7.6" rx="0.83"/><rect id="rect6824" x="412.51" y="196.01" width="5.13" height="7.6" rx="0.83"/></g><g id="g6826"><rect id="rect6828" x="355" y="158.77" width="7.21" height="7.31"/><rect id="rect6830" x="355" y="172.88" width="7.21" height="7.66"/><rect id="rect6832" x="355.13" y="183.68" width="7.21" height="7.66"/><rect id="rect6834" x="355.22" y="195.68" width="7.21" height="7.66"/></g><g id="g6836"><rect id="rect6838" x="336.42" y="158.77" width="6" height="7.6"/><rect id="rect6840" x="336.42" y="172.77" width="6" height="7.6"/><rect id="rect6842" x="336.52" y="184.01" width="6" height="7.6"/><rect id="rect6844" x="336.52" y="196.01" width="6" height="7.6"/></g><g id="g6846"><rect id="rect6848" x="318.42" y="158.77" width="6" height="7.6"/><rect id="rect6850" x="318.42" y="172.77" width="6" height="7.6"/><rect id="rect6852" x="318.52" y="184.01" width="6" height="7.6"/><path id="rect6854" d="M323.55,196h-4.06a.9.9,0,0,0-1,.83v5.94a.9.9,0,0,0,1,.83h4.06a.91.91,0,0,0,1-.83v-5.94A.91.91,0,0,0,323.55,196Z"/></g><g id="g6856"><rect id="rect6858" x="299" y="158.77" width="7.21" height="7.66"/><rect id="rect6860" x="299" y="172.88" width="7.21" height="7.66"/><rect id="rect6862" x="299.22" y="183.56" width="7.21" height="7.66"/><rect id="rect6864" x="299.11" y="195.77" width="7.21" height="7.66"/></g><g id="g6866"><path id="rect6868" d="M285.44,158.77h-4.05a.9.9,0,0,0-1,.83v6a.9.9,0,0,0,1,.82h4.05a.9.9,0,0,0,1-.82v-6A.9.9,0,0,0,285.44,158.77Z"/><rect id="rect6870" x="280.42" y="172.77" width="6" height="7.6"/><rect id="rect6872" x="280.52" y="184.01" width="6" height="7.6"/><rect id="rect6874" x="280.52" y="196.01" width="6" height="7.6"/><rect id="rect6876" x="289.12" y="203.32" width="0.18" height="0.09"/></g><g id="g6878"><rect id="rect6880" x="375" y="158.77" width="7.21" height="7.66"/><rect id="rect6882" x="375" y="172.88" width="7.21" height="7.66"/><rect id="rect6884" x="375.13" y="184.21" width="7.21" height="7.66"/><path id="rect6886" d="M381.17,196.3h-4.88c-.64,0-1.16.38-1.16.84v6c0,.46.52.83,1.16.83h4.88c.65,0,1.17-.37,1.17-.83v-6C382.34,196.68,381.82,196.3,381.17,196.3Z"/></g></g><g id="g6888"><path id="rect6890" d="M269.31,158.77h-4.76c-.63,0-1.14.38-1.14.84v6c0,.46.51.83,1.14.83h4.76c.63,0,1.14-.37,1.14-.83v-6C270.45,159.15,269.94,158.77,269.31,158.77Z"/><rect id="rect6892" x="263.41" y="172.88" width="7.04" height="7.66"/><rect id="rect6894" x="263.53" y="183.9" width="7.04" height="7.66"/><rect id="rect6896" x="263.45" y="195.82" width="7.04" height="7.66"/></g><g id="g6898"><rect id="rect6900" x="243.41" y="158.77" width="8.78" height="7.66"/><rect id="rect6902" x="243.41" y="172.88" width="8.78" height="7.66"/><rect id="rect6904" x="243.5" y="183.71" width="8.78" height="7.66"/><rect id="rect6906" x="243.56" y="195.62" width="8.78" height="7.66"/><path id="path6908" class="cls-3" d="M243.94,163l-.84-.44-.88-1.18,2.94-.16-.28,1.19"/><path id="path6910" class="cls-3" d="M240.25,159.78l1.22-1.25-1.47-.12.1,1.15"/><path id="path6912" class="cls-3" d="M237.94,159.84l.72-1.37-1.37-.09-.13.75"/><path id="path6914" class="cls-4" d="M237.54,162.84l1.25,0s-.13-1-.25-1a2.87,2.87,0,0,1-.44-.69l-.6,1.1,0,.37"/><path id="path6916" class="cls-3" d="M233.79,160.72l2.4.34L235,162.72l-.13,2.06.72,1-.56.41-2.6-.22.88-4.69"/></g><rect id="rect6920" x="220.61" y="158.43" width="13.47" height="7.66" rx="0.84"/><g id="g6926"><rect id="rect6928" x="280.14" y="206.68" width="103.59" height="5.21"/><rect id="rect6930" x="250.14" y="206.68" width="28.81" height="5.21"/><rect id="rect6932" x="384.84" y="206.68" width="60.88" height="5.21"/></g><g id="g6934"><path id="path6936" class="cls-5" d="M421.66,203.38H407.91"/><path id="path6938" class="cls-5" d="M421.54,191.38H407.79"/><path id="path6940" class="cls-5" d="M421.55,180.4l-13.64,0"/><path id="path6942" class="cls-5" d="M421.81,166.1l-13.65,0"/><g id="g6944"><path id="path6946" class="cls-5" d="M365.66,203.38H351.91"/><path id="path6948" class="cls-5" d="M365.54,191.38H351.79"/><path id="path6950" class="cls-5" d="M365.29,180.38H351.91"/><path id="path6952" class="cls-5" d="M366,166.13H352.16"/></g><g id="g6954"><path id="path6956" class="cls-6" d="M345.76,203.38H333.9"/><path id="path6958" class="cls-6" d="M346,191.38H333.79"/><path id="path6960" class="cls-6" d="M345.78,180.38H333.9"/><path id="path6962" class="cls-6" d="M345.83,166.13l-12.24.08"/></g><g id="g6964"><path id="path6966" class="cls-7" d="M327.6,203.38H315.89"/><path id="path6968" class="cls-7" d="M327.49,191.39h-11.7"/><path id="path6970" class="cls-7" d="M327.62,180.4H315.89"/><path id="path6972" class="cls-7" d="M327.91,166.17h-11.8"/></g><g id="g6974"><path id="path6976" class="cls-8" d="M309.89,203.38H296.14"/><path id="path6978" class="cls-8" d="M309.94,191.43H296"/><path id="path6980" class="cls-8" d="M309.69,180.48H296.14"/><path id="path6982" class="cls-9" d="M309.82,166.3H295.87"/></g><g id="g6984"><path id="path6986" class="cls-10" d="M289.86,203.38H277.94"/><path id="path6988" class="cls-10" d="M289.92,191.38H278"/><path id="path6990" class="cls-10" d="M289.85,180.38l-12,.06"/><path id="path6992" class="cls-10" d="M289.93,166.13l-11.53.06"/></g><g id="g6994"><path id="path6996" class="cls-11" d="M271.37,203.38H259.84"/><path id="path6998" class="cls-11" d="M271.26,191.38H259.73"/><path id="path7000" class="cls-11" d="M271.05,180.38H259.84"/><path id="path7002" class="cls-12" d="M271.31,166.12H260.26"/></g><g id="g7004"><path id="path7006" class="cls-11" d="M253.37,203.38H241.84"/><path id="path7008" class="cls-11" d="M253.66,191.4l-11.93,0"/><path id="path7010" class="cls-11" d="M253.58,180.31l-11.74.07"/><path id="path7012" class="cls-13" d="M253.17,166.12l-10.73.08"/></g><g id="g7014"><path id="path7022" class="cls-19" d="M235.68,166.13H218.36"/></g><path id="path7024" class="cls-3" d="M305.73,166.29l4,.06-.36-1.68-3.93.38"/><path id="path7026" class="cls-3" d="M319.85,166l-4,.22.07-4.4.75-.69-.38-.81.71-.82,1-.62,1.33.27.66,4.3Z"/><path id="path7028" class="cls-3" d="M323.61,166.13l4-.2-.06-4-1-.92.93-.87-1.19-1-3.18-.22.15,4.6"/><path id="path7030" class="cls-3" d="M337.19,166.09h-3.31l-.13-4.18.88-.57-.38-.84,1.13-1.66,1.75-.09.78,4.69"/><path id="path7032" class="cls-3" d="M341.91,166.22l3.88-.16,0-3.84-.88-1,.6-.94L344,159l-2-.09-.07,6.62"/><path id="path7034" class="cls-3" d="M361.46,158.73l2.87.22,1.29,1.41-.67.4.22.71.49.44,0,4.33-5.25-.22.92-7.11"/><path id="path7036" class="cls-3" d="M355.58,159.08l-1.94-.09-1.11,1,.05.57-.13.89-.49.62,0,4.33,5.17-.36.8-6.62h-.44"/><path id="path7038" class="cls-3" d="M360.53,161.69,353,159.83l-.75.4,3.45.93,3.36,2.47"/></g><rect id="rect7040" x="383.13" y="158.5" width="3.53" height="48.44"/><path id="path7042" class="cls-3" d="M262.38,158.64l2.38.53.18,2.48-.31,2.78v1.41l-4.42.09,1.37-1.41-.22-1.37-.93-2,1-.22,1.06-.88,0-.88-.36-.4"/><path id="path7044" class="cls-3" d="M251.47,161l2.38.13-1.08,2.67.64,1.78.25.36-2.47.06-.08-3.23"/><path id="path7046" class="cls-3" d="M305.16,159.44l2.06-.72,1.85,1.28.22.56-.32.53.53.82.07,4.12-5.13,0Z"/><rect id="rect7048" x="223.85" y="196.31" width="5.31" height="10.19"/><path id="path7050" class="cls-5" d="M250.6,207.91h-49v-1.32"/><path id="path7052" class="cls-5" d="M252.19,209.91H199.5"/><path id="path7054" class="cls-14" d="M250.21,211.64H200.47"/><path id="path7056" class="cls-15" d="M217.87,134.38H238.2v5.3h17.33v1.77h3v4.06H277.8v5.66h.71"/><path id="path7058" class="cls-5" d="M218.58,151H449.1a3.14,3.14,0,0,1,0,3.19h-231"/><path id="path7060" class="cls-14" d="M255.3,141.7H238v-3"/><path id="path7062" class="cls-5" d="M237.85,136.5H217.57"/><path id="path7064" class="cls-5" d="M278.66,151.13v7.18"/><path id="path7066" class="cls-5" d="M445.32,154.25v4.43"/><path id="path7068" class="cls-16" d="M436.4,158.62l-7.57,0"/><path id="path7070" class="cls-17" d="M420.16,158.7H408.91"/><path id="path7072" class="cls-15" d="M400.13,158.59l.15.07-7.52,0"/><path id="path7074" class="cls-15" d="M364.16,158.86H353.37"/><path id="path7076" class="cls-15" d="M344.07,158.73H335"/><path id="path7078" class="cls-15" d="M326.42,158.77h-9.27"/><path id="path7080" class="cls-15" d="M308.26,158.69h-11.2"/><path id="path7082" class="cls-15" d="M288.15,158.68H218"/><rect id="rect7084" class="cls-18" x="278.07" y="146.96" width="139.52" height="2.3"/><path id="path7086" class="cls-3" d="M419.51,145l29.41,6.16H415Z"/><path id="path7088" class="cls-15" d="M384.16,158.86H373.37"/><path id="path7090" class="cls-3" d="M286,166.06l3.72,0,0-4.28-.78-.44.28-.84.38-.37-2.19-1.41-2.59.47-.13,4.09"/><path id="path7092" class="cls-3" d="M280.94,160.63l-2.31.59.31,1.12.5,1.94-.84,1.53.22.41,3.4-.56-.34-3.19"/><path id="path7094" class="cls-3" d="M299.6,166.22l-3.63,0,.19-4.41.53-.75-.65-.75,1.68-1.5,1.94.31Z"/><path id="path7096" class="cls-15" d="M299.2,165.94h-3.29"/><path id="path7098" class="cls-15" d="M295.83,162.78l1-.55-.37-.58-.78.4"/><path id="path7100" class="cls-3" d="M245.08,166.11l-2.59-.09,1.06-.91,1.55,0"/><path id="path7102" class="cls-3" d="M269.75,161.06l2.57-.12-.91,1.47-.66,1.22.5,2,.5.34s-1.09.31-1.25.31a31.92,31.92,0,0,1-1.84-3"/><path id="path7104" class="cls-3" d="M251.37,165.84l.09,42.16,2,2.13v-4.07l-.36-.88.8-1.06.09-36.77-1.15-.29a2.63,2.63,0,0,1,.11-.58c.06-.13.24-1.32.24-1.32a14.31,14.31,0,0,1-.86-1.22,1.36,1.36,0,0,0-1.13-.46,8.6,8.6,0,0,0-1.55,1l.65,1.48.55-.15"/><path id="path7106" class="cls-3" d="M268.79,165l.35,44.28,1.94-1.06.18-2.47.62-1.51-.35-36.59.08-.71s-.53,0-.53-.35a5.56,5.56,0,0,1,.27-1.15l-1-1.68"/><path id="path7108" class="cls-3" d="M234,166l.18,40.06,1.13-.25.69-1.62-.38-36.81-.56-.88-.69-1.19"/></g><path class="cls-20" d="M238.43,138.34H220c.11-.21.11-.32.21-.53,14.5,0,14.5,0,18.18.11.21.21.21.21,0,.42Z"/><polygon class="cls-21" points="47.51 45.77 47.51 12.98 96.58 12.98 96.58 45.77 128.73 45.77 128.73 94.31 96.58 94.31 96.58 126.99 47.51 126.99 47.51 94.31 14.72 94.31 14.72 45.77 47.51 45.77"/><path class="cls-22" d="M71.78,4.89a65,65,0,1,1-65,65,65.16,65.16,0,0,1,65-65Z"/><path class="cls-20" d="M35.84,31.79c1.27-.31,2.42.11,2.53.84s-.74,1.58-2,1.79-2.42-.11-2.63-.84.84-1.58,2.1-1.79Z"/><path class="cls-23" d="M75.67,99.77l-.21,6.1A31.46,31.46,0,0,0,68,109.44c-8,4.52-.32,11.77.21,12.3-6.83-2-8.41-7.89-5.15-12.61,1.47-2.84,7-6,12.61-9.36Z"/><path class="cls-24" d="M75.67,99.77l-.21,6.1A31.46,31.46,0,0,0,68,109.44c-8,4.52-.32,11.77.21,12.3-6.83-2-8.41-7.89-5.15-12.61,1.47-2.84,7-6,12.61-9.36Z"/><path class="cls-23" d="M68.84,105.76l-.53-6.3c-1-.63-2.1-1.37-3.15-2-3.78-2.73-4.73-9.35-1.58-13.34,4.63-3.89,7.36-4.94,12.82-6.73,4.63-1,7.78-2.52,13.66-4.09,8.83-3.26,23.44-7.15,27.53-22.7a19.05,19.05,0,0,0-1.47-12c-2.31-4.83-6.72-8.51-11.56-11.14-3.67-1.89-13.34-1.68-16.07,2.73-.21.32.1.64,0,.95l8.09.32L88.8,32.74c.32.31-.1.73.32.94,2.73,1.37,9.77-.1,13-.73.52,0,1.68-.11,2-.11,7.67,5.89,10.51,14.61,4.73,21.54a38.82,38.82,0,0,1-6,5.78c-6.3,4.1-12.5,5.68-20,8-11.88,4.41-21,5-27,16.7.21.32-2.2,6.73,2,13.45a27.44,27.44,0,0,0,10.93,7.46Z"/><path class="cls-24" d="M68.84,105.76l-.53-6.3c-1-.63-2.1-1.37-3.15-2-3.78-2.73-4.73-9.35-1.58-13.34,4.63-3.89,7.36-4.94,12.82-6.73,4.63-1,7.78-2.52,13.66-4.09,8.83-3.26,23.44-7.15,27.53-22.7a19.05,19.05,0,0,0-1.47-12c-2.31-4.83-6.72-8.51-11.56-11.14-3.67-1.89-13.34-1.68-16.07,2.73-.21.32.1.64,0,.95l8.09.32L88.8,32.74c.32.31-.1.73.32.94,2.73,1.37,9.77-.1,13-.73.52,0,1.68-.11,2-.11,7.67,5.89,10.51,14.61,4.73,21.54a38.82,38.82,0,0,1-6,5.78c-6.3,4.1-12.5,5.68-20,8-11.88,4.41-21,5-27,16.7.21.32-2.2,6.73,2,13.45a27.44,27.44,0,0,0,10.93,7.46Z"/><path class="cls-20" d="M99.73,27.9c.63,0,1.16.32,1.16.63s-.53.63-1.16.63-1.26-.31-1.26-.63.52-.63,1.26-.63Z"/><path class="cls-24" d="M99.73,27.9c.63,0,1.16.32,1.16.63s-.53.63-1.16.63-1.26-.31-1.26-.63.52-.63,1.26-.63Z"/><polyline class="cls-25" points="96.79 31.37 86.07 32.32 82.81 31.79"/><line class="cls-25" x1="86.18" y1="32.32" x2="83.02" y2="33.47"/><polygon class="cls-23" points="34.16 45.77 109.92 45.77 77.45 61.95 74.2 121.31 93.43 126.99 49.82 126.99 69.89 121.31 66.63 61.95 34.16 45.77"/><polygon class="cls-24" points="34.16 45.77 109.92 45.77 77.45 61.95 74.2 121.21 93.43 126.99 49.82 126.99 69.89 121.31 66.63 61.95 34.16 45.77"/><path class="cls-23" d="M75,105.87l.21-6.1c1.36-.73,2.73-1.57,4.1-2.41C83,94.63,84.07,88,80.92,84c-4.62-3.88-7.35-4.94-12.82-6.72-4.73-1.05-7.88-2.52-13.66-4.1C45.51,69.93,31,66.05,26.81,50.49c-.74-4.93-.32-7.88,1.57-12C30.59,33.68,35,30,39.84,27.38,43.51,25.49,53.29,25.7,56,30.11c.1.31-.21.63-.11.95l-8.09.31,7.78,1.26c-.32.21.21.74-.32.95-2.73,1.36-9.66-.11-13-.74-.52-.1-1.68-.1-2-.21-7.57,6-10.51,14.71-4.73,21.65a39.84,39.84,0,0,0,6,5.78c6.3,4.09,12.5,5.67,20,7.88,11.88,4.52,21,5.15,27,16.81-.21.31,2.2,6.72-2,13.45A26.27,26.27,0,0,1,75,105.87Z"/><path class="cls-24" d="M75,105.87l.21-6.1c1.36-.73,2.73-1.57,4.1-2.41C83,94.63,84.07,88,80.92,84c-4.62-3.88-7.35-4.94-12.82-6.72-4.73-1.05-7.88-2.52-13.66-4.1C45.51,69.93,31,66.05,26.81,50.49c-.74-4.93-.32-7.88,1.57-12C30.59,33.68,35,30,39.84,27.38,43.51,25.49,53.29,25.7,56,30.11c.1.31-.21.63-.11.95l-8.09.31,7.78,1.26c-.32.21.21.74-.32.95-2.73,1.36-9.66-.11-13-.74-.52-.1-1.68-.1-2-.21-7.57,6-10.51,14.71-4.73,21.65a39.84,39.84,0,0,0,6,5.78c6.3,4.09,12.5,5.67,20,7.88,11.88,4.52,21,5.15,27,16.81-.21.31,2.2,6.72-2,13.45A26.27,26.27,0,0,1,75,105.87Z"/><path class="cls-20" d="M44.36,27.9c.73,0,1.26.32,1.26.63s-.53.63-1.26.63-1.16-.31-1.16-.63.52-.63,1.16-.63Z"/><path class="cls-24" d="M44.36,27.9c.73,0,1.26.32,1.26.63s-.53.63-1.26.63-1.16-.31-1.16-.63.52-.63,1.16-.63Z"/><polyline class="cls-25" points="47.61 31.37 58.44 32.32 61.69 31.79"/><line class="cls-25" x1="58.33" y1="32.32" x2="61.48" y2="33.47"/><path class="cls-23" d="M68.42,99.46l.52,6.3a34.58,34.58,0,0,1,8,3.89c8,4.52.31,11.67-.32,12.3,6.94-2,8.51-8,5.26-12.72-1.58-2.84-7.57-6.3-13.45-9.77Z"/><path class="cls-24" d="M68.42,99.46l.52,6.3a34.58,34.58,0,0,1,8,3.89c8,4.52.31,11.67-.32,12.3,6.94-2,8.51-8,5.26-12.72-1.58-2.84-7.57-6.3-13.45-9.77Z"/><polygon class="cls-23" points="67.37 99.46 69.26 100.61 69.78 105.55 67.89 104.82 67.37 99.46"/><polygon class="cls-26" points="67.37 99.46 69.26 100.61 69.78 105.55 67.89 104.82 67.37 99.46"/><path class="cls-27" d="M173.74,23.76V73.58q0,7,1.67,10.1t5.91,3.14V90H156.06V86.82a5.63,5.63,0,0,0,5.36-2.93Q163,81,163,74.2V22.72q0-6.78-1.57-9.67a5.62,5.62,0,0,0-5.39-2.89V6.89h42.76v3.27c-1.93.53-2.89,1.54-2.89,3a13.56,13.56,0,0,0,.86,3.64L198.08,20l7.46,16.93L214.6,19c1.36-2.83,2-4.76,2-5.79a2.92,2.92,0,0,0-2.15-3V6.89h40v3.27c-2.55,0-4.33,1-5.36,2.89s-1.54,5.15-1.54,9.67V74.2q0,6.76,1.54,9.69a5.54,5.54,0,0,0,5.36,2.93V90h-40V86.82a5.87,5.87,0,0,0,5.51-3q1.69-3,1.7-9.66V23.76l-24.22,49.7Z"/><path class="cls-27" d="M266.43,22.69c0-4.52-.53-7.75-1.57-9.68s-2.85-2.89-5.4-2.89V6.89H315.4Q325.89,7,332,9.11t6.14,10.31a13.07,13.07,0,0,1-3.33,8.79,28.49,28.49,0,0,1-7.73,6.32A85,85,0,0,1,317,39.28a49.19,49.19,0,0,1,14,4.56,28.15,28.15,0,0,1,10.42,8.87,22,22,0,0,1,4,13.05,20.44,20.44,0,0,1-3.3,11.45,25.37,25.37,0,0,1-9.22,8.32A29.32,29.32,0,0,1,322,89.1a100.37,100.37,0,0,1-13.66.86H259.46V86.82a5.64,5.64,0,0,0,5.37-2.93c1.06-2,1.6-5.18,1.6-9.7Zm25.88,16.59a47.56,47.56,0,0,0,14.33-6q6.5-4.12,6.5-10.41a6,6,0,0,0-3.42-5.78,17.64,17.64,0,0,0-8-1.73q-6,0-8.08,1.85-1.29,1.29-1.29,5.85Zm0,34.05a22.33,22.33,0,0,0,.43,5.17,3.53,3.53,0,0,0,1.95,2.4,12.87,12.87,0,0,0,5.22.74,22.77,22.77,0,0,0,9.73-1.94,15.13,15.13,0,0,0,6.58-5.78,17.56,17.56,0,0,0,2.41-9.46,20,20,0,0,0-3.69-11.88,28,28,0,0,0-10-8.5l-12.63,4.25Z"/><path class="cls-27" d="M372.61,71q-2.4,7.39-2.4,10.23a5,5,0,0,0,1.5,4,7.94,7.94,0,0,0,4.35,1.6V90H348.27V86.82a11,11,0,0,0,7-4.59,53.91,53.91,0,0,0,4.93-9.83L379.94,20q2.16-5.17,2.16-6.78a2.86,2.86,0,0,0-2.77-3.15V6.89h36.85v3.2A3.7,3.7,0,0,0,414,11a3.08,3.08,0,0,0-.71,2.25q0,.67,3.27,10.6t7.18,21.5q3.9,11.6,9.21,27.18,1.49,4.32,2.5,6.9a16.3,16.3,0,0,0,3,4.84,7.44,7.44,0,0,0,5,2.56V90H399.91V86.82a6.91,6.91,0,0,0,6.9-7.34,12.81,12.81,0,0,0-1.57-6,23.72,23.72,0,0,0-4.1-5.61,30.92,30.92,0,0,0-4.93-4.19,28.76,28.76,0,0,0-8.63-4.19,37.09,37.09,0,0,0-10.41-1.36Zm16.45-47.33-7.95,23.73q8.63,0,17.5,6.16Z"/><path d="M166.44,111.91l-7.12,6.22v1.33a8,8,0,0,0,.32,2.54,1.39,1.39,0,0,0,1.49.91v.27h-6.7v-.27a1.73,1.73,0,0,0,1.24-.59,2.36,2.36,0,0,0,.48-1.16,13,13,0,0,0,.09-1.7V112a11.23,11.23,0,0,0-.1-1.7,2.37,2.37,0,0,0-.5-1.17,1.64,1.64,0,0,0-1.21-.56v-.27h6.7v.27a1.4,1.4,0,0,0-1.49.9,8,8,0,0,0-.32,2.53v4.44l7.12-6.22a2.2,2.2,0,0,0-.36-1,1.68,1.68,0,0,0-1.45-.68v-.27h6.7v.27a1.4,1.4,0,0,0-1.49.9,7.74,7.74,0,0,0-.32,2.53v7.47a7.73,7.73,0,0,0,.32,2.54,1.39,1.39,0,0,0,1.49.91v.27h-6.7v-.27a1.58,1.58,0,0,0,1.5-1,7.62,7.62,0,0,0,.31-2.44Z"/><path d="M176.59,110.38v8.85a11.54,11.54,0,0,0,.12,1.79,2.83,2.83,0,0,0,.53,1.29,1.67,1.67,0,0,0,1.22.6v.27h-5.32v-.27a1.69,1.69,0,0,0,1.49-1,7.62,7.62,0,0,0,.3-2.46v-7.18a12.68,12.68,0,0,0-.1-1.81,2.57,2.57,0,0,0-.48-1.22,1.78,1.78,0,0,0-1.21-.65v-.28H180v.28a.56.56,0,0,0-.5.58,2.51,2.51,0,0,0,.38,1.14l2.5,4.68,2.36-3.92a5.41,5.41,0,0,0,.75-1.88q0-.47-.54-.6v-.28h6.88v.28a1.89,1.89,0,0,0-1.2.64,2.32,2.32,0,0,0-.49,1.12,12.86,12.86,0,0,0-.09,1.7v7.2a9.38,9.38,0,0,0,.29,2.7,1.53,1.53,0,0,0,1.49,1v.27H185.2v-.27a1.57,1.57,0,0,0,1.47-1,7.4,7.4,0,0,0,.33-2.49v-9.05l-5.4,9.08Z"/><path d="M195.16,121.36a2.18,2.18,0,0,1,.58-1.55,1.89,1.89,0,0,1,1.47-.63,1.7,1.7,0,0,1,1.37.63,2.2,2.2,0,0,1,.53,1.46,2.31,2.31,0,0,1-.57,1.53,1.8,1.8,0,0,1-1.42.67,1.77,1.77,0,0,1-1.38-.64A2.12,2.12,0,0,1,195.16,121.36Z"/><path d="M215.13,107.27a7.83,7.83,0,0,0-.33-2.58,1.82,1.82,0,0,0-1.63-1.1v-.28h7.24v.28a1.72,1.72,0,0,0-1.63,1,7.22,7.22,0,0,0-.33,2.48v3.69l2.59-2.08c.51-.4,1.07-.87,1.67-1.4a18.13,18.13,0,0,0,1.65-1.62,2.3,2.3,0,0,0,.73-1.33.61.61,0,0,0-.2-.53,1.26,1.26,0,0,0-.62-.19v-.28h7.28v.28a5.8,5.8,0,0,0-2,.48,8.49,8.49,0,0,0-1.67.94c-.48.35-1.13.86-2,1.54l-2.27,1.87a24,24,0,0,1,2.74,3,26.49,26.49,0,0,1,2.11,3.28,38.22,38.22,0,0,1,1.83,3.91l.57,1.39.37.86a6.52,6.52,0,0,0,.49,1,2.3,2.3,0,0,0,.6.67,2,2,0,0,0,.84.35v.27h-6.64v-.27a1.1,1.1,0,0,0,1.06-1.18,8.14,8.14,0,0,0-.74-2.87,25.66,25.66,0,0,0-1.47-3.08,32.27,32.27,0,0,0-4.07-5.43l-2.87,2.29v6.59a8.12,8.12,0,0,0,.33,2.61,1.71,1.71,0,0,0,1.63,1.07v.27h-7.24v-.27a2.14,2.14,0,0,0,1.33-.63,2.28,2.28,0,0,0,.53-1.13,11.25,11.25,0,0,0,.1-1.72Z"/><path d="M235,121.36a2.21,2.21,0,0,1,.57-1.55,1.92,1.92,0,0,1,1.47-.63,1.72,1.72,0,0,1,1.38.63,2.2,2.2,0,0,1,.53,1.46,2.32,2.32,0,0,1-.58,1.53,1.77,1.77,0,0,1-1.41.67,1.81,1.81,0,0,1-1.39-.64A2.16,2.16,0,0,1,235,121.36Z"/><path d="M248.63,119.23a8.12,8.12,0,0,0,.33,2.61,1.71,1.71,0,0,0,1.63,1.07v.27h-7.24v-.27a1.87,1.87,0,0,0,1.63-1,7.05,7.05,0,0,0,.33-2.46V107.27a12.68,12.68,0,0,0-.1-1.81,2.45,2.45,0,0,0-.52-1.21,2,2,0,0,0-1.34-.66v-.28h7.24v.28a2,2,0,0,0-1.33.58,2.24,2.24,0,0,0-.53,1.13,11.6,11.6,0,0,0-.1,1.75v6.37l9-7.84a2.5,2.5,0,0,0-.33-1.35c-.22-.35-.76-.56-1.63-.64v-.28h7.27v.28a1.79,1.79,0,0,0-1.63,1,7,7,0,0,0-.33,2.44v12.18a17.46,17.46,0,0,0,.12,1.88,2.31,2.31,0,0,0,.51,1.14,2,2,0,0,0,1.33.66v.27h-7.27v-.27a2,2,0,0,0,1.34-.56,2.15,2.15,0,0,0,.52-1.13,11.93,11.93,0,0,0,.1-1.79v-11.8l-9,7.85Z"/><path d="M266.39,121.36a2.21,2.21,0,0,1,.57-1.55,1.93,1.93,0,0,1,1.48-.63,1.72,1.72,0,0,1,1.37.63,2.2,2.2,0,0,1,.53,1.46,2.27,2.27,0,0,1-.58,1.53,1.77,1.77,0,0,1-1.41.67,1.81,1.81,0,0,1-1.39-.64A2.16,2.16,0,0,1,266.39,121.36Z"/><path d="M302,123.47a3.92,3.92,0,0,0-1-.09l-3.65.19c-3.7,0-6.64-.9-8.82-2.72a10.38,10.38,0,0,1-1.71-1.8,11.1,11.1,0,0,1-1.21-2.06,12.09,12.09,0,0,1-.72-2.3,12.71,12.71,0,0,1-.25-2.44,10.47,10.47,0,0,1,.33-2.63,9,9,0,0,1,1-2.41,7.83,7.83,0,0,1,1.65-2,9.58,9.58,0,0,1,3.42-1.78,14.7,14.7,0,0,1,4.1-.53l3.32.26,1,.09a1.19,1.19,0,0,0,1.18-.63l1.38,5.7-.25.1a5.88,5.88,0,0,0-2.61-2.92,8.37,8.37,0,0,0-6.78-.58,5.36,5.36,0,0,0-2.16,1.57,7.65,7.65,0,0,0-1.45,2.55,9.36,9.36,0,0,0-.48,3,11,11,0,0,0,1.13,4.93,9.19,9.19,0,0,0,3.2,3.67,8.47,8.47,0,0,0,4.75,1.37,6.59,6.59,0,0,0,5.05-2.21A9.72,9.72,0,0,0,304,117.3l.3.11Z"/><path d="M307.49,107.27a7.83,7.83,0,0,0-.33-2.58,1.83,1.83,0,0,0-1.63-1.1v-.28h7.24v.28a1.72,1.72,0,0,0-1.63,1,7.22,7.22,0,0,0-.33,2.48v3.69l2.59-2.08c.51-.4,1.07-.87,1.67-1.4a19.52,19.52,0,0,0,1.65-1.62,2.3,2.3,0,0,0,.73-1.33.61.61,0,0,0-.2-.53,1.26,1.26,0,0,0-.62-.19v-.28h7.28v.28a5.8,5.8,0,0,0-2,.48,8.49,8.49,0,0,0-1.67.94c-.48.35-1.13.86-2,1.54L316,108.42a24,24,0,0,1,2.74,3,26.49,26.49,0,0,1,2.11,3.28,38.22,38.22,0,0,1,1.83,3.91l.57,1.39.37.86a6.52,6.52,0,0,0,.49,1,2.3,2.3,0,0,0,.6.67,2,2,0,0,0,.84.35v.27H318.9v-.27a1.11,1.11,0,0,0,1.06-1.18,8.14,8.14,0,0,0-.74-2.87,25.66,25.66,0,0,0-1.47-3.08,32.27,32.27,0,0,0-4.07-5.43l-2.87,2.29v6.59a8.12,8.12,0,0,0,.33,2.61,1.71,1.71,0,0,0,1.63,1.07v.27h-7.24v-.27a2.16,2.16,0,0,0,1.33-.63,2.28,2.28,0,0,0,.53-1.13,11.25,11.25,0,0,0,.1-1.72Z"/><path d="M337.16,103.31a10.1,10.1,0,0,1,2.43.26,3.21,3.21,0,0,1,1.68,1,3.12,3.12,0,0,1,.66,2.13,4.31,4.31,0,0,1-1.8,3.38,15.23,15.23,0,0,1-4.09,2.38,47.35,47.35,0,0,1-4.67,1.56v5.21a8.12,8.12,0,0,0,.33,2.61,1.71,1.71,0,0,0,1.63,1.07v.27h-7.24v-.27a1.88,1.88,0,0,0,1.63-1,7,7,0,0,0,.33-2.46V107.28a14.48,14.48,0,0,0-.1-1.83,2.54,2.54,0,0,0-.53-1.22,1.9,1.9,0,0,0-1.33-.64v-.28Zm-5.79,9.27q7.19-2.28,7.19-5.38a2,2,0,0,0-1.12-1.94,7.69,7.69,0,0,0-3.23-.54,5.18,5.18,0,0,0-2,.28,1.19,1.19,0,0,0-.73.81,8.48,8.48,0,0,0-.13,1.8Z"/><path d="M361.92,103.31v.28a1.8,1.8,0,0,0-1.63,1.11,8,8,0,0,0-.33,2.58V119.4a11.45,11.45,0,0,0,.1,1.74,2.29,2.29,0,0,0,.52,1.14,2.19,2.19,0,0,0,1.34.63v.27h-7.26v-.27a1.86,1.86,0,0,0,1.65-1.06,7.82,7.82,0,0,0,.33-2.62v-5.41l-3.51-1.21c-.71,1-1.36,1.89-2,2.82s-1.13,1.82-1.6,2.68a25.32,25.32,0,0,0-1.21,2.47,3,3,0,0,0-.27,1.15c0,.64.37,1,1.12,1.18v.27h-6.37v-.27a1.86,1.86,0,0,0,1.08-.88c.3-.48.78-1.41,1.46-2.8a41,41,0,0,1,2.2-4,42.53,42.53,0,0,1,2.65-3.83c-.92-.5-1.59-.88-2-1.15a7,7,0,0,1-1.25-1A4.23,4.23,0,0,1,346,108a3.5,3.5,0,0,1-.35-1.59,2.55,2.55,0,0,1,1.2-2.29,6.08,6.08,0,0,1,3.38-.79Zm-5.28,3.94a6.54,6.54,0,0,0-.17-1.85,1,1,0,0,0-.85-.57,23.24,23.24,0,0,0-2.83-.11,6.25,6.25,0,0,0-2.64.46,1.91,1.91,0,0,0-.94,1.91c0,1.21.8,2.27,2.4,3.19a22.86,22.86,0,0,0,5,2.12Z"/><path d="M366,107.05a7,7,0,0,0-.33-2.42,1.81,1.81,0,0,0-1.6-1v-.28h12.54a7.28,7.28,0,0,0,1.21-.07.9.9,0,0,0,.57-.31l1.48,6-.28.08a5.79,5.79,0,0,0-2.55-3.14,9.29,9.29,0,0,0-4.56-1c-1.08,0-1.81,0-2.2.06a1.25,1.25,0,0,0-.79.28,1.1,1.1,0,0,0-.21.76c0,.18,0,.36,0,.52v3.67a20.54,20.54,0,0,1,5.3.61,12.12,12.12,0,0,1,3.8,1.63,7.16,7.16,0,0,1,2.25,2.32,5.39,5.39,0,0,1,.75,2.75q0,5.7-8.35,5.71h-9v-.27a1.89,1.89,0,0,0,1.63-1,7.05,7.05,0,0,0,.33-2.46Zm3.31,12.47v.75a2.7,2.7,0,0,0,.15,1.09.77.77,0,0,0,.61.36,14.43,14.43,0,0,0,1.83.07,8.19,8.19,0,0,0,3.2-.58,4.78,4.78,0,0,0,2.09-1.58,3.72,3.72,0,0,0,.71-2.25,5.13,5.13,0,0,0-.87-2.85,6.15,6.15,0,0,0-2.83-2.17,12.47,12.47,0,0,0-4.89-.84Z"/><path d="M388.69,119.23a7.81,7.81,0,0,0,.34,2.61,1.7,1.7,0,0,0,1.62,1.07v.27h-7.23v-.27a1.88,1.88,0,0,0,1.63-1,7.05,7.05,0,0,0,.33-2.46V107.27a12.47,12.47,0,0,0-.11-1.81,2.36,2.36,0,0,0-.52-1.21,2,2,0,0,0-1.33-.66v-.28h7.23v.28a2,2,0,0,0-1.33.58,2.22,2.22,0,0,0-.52,1.13,11.39,11.39,0,0,0-.11,1.75v6.37l9-7.84a2.5,2.5,0,0,0-.33-1.35c-.22-.35-.77-.56-1.63-.64v-.28H403v.28a1.79,1.79,0,0,0-1.62,1,7,7,0,0,0-.34,2.44v12.18a17.46,17.46,0,0,0,.12,1.88,2.31,2.31,0,0,0,.51,1.14,2,2,0,0,0,1.33.66v.27h-7.26v-.27a1.94,1.94,0,0,0,1.33-.56,2.16,2.16,0,0,0,.53-1.13,13.44,13.44,0,0,0,.1-1.79v-11.8l-9,7.85Z"/><path d="M410.43,119.23a8.12,8.12,0,0,0,.33,2.61,1.72,1.72,0,0,0,1.63,1.07v.27h-7.23v-.27a1.86,1.86,0,0,0,1.62-1,7,7,0,0,0,.34-2.46V107.27a12.47,12.47,0,0,0-.11-1.81,2.45,2.45,0,0,0-.52-1.21,2,2,0,0,0-1.33-.66v-.28h7.23v.28a2,2,0,0,0-1.33.58,2.24,2.24,0,0,0-.53,1.13,11.6,11.6,0,0,0-.1,1.75v1.79h9v-1.57a8.63,8.63,0,0,0-.36-2.69,1.65,1.65,0,0,0-1.6-1v-.28h7.26v.28a2,2,0,0,0-1.33.6,2.13,2.13,0,0,0-.51,1.07,15.49,15.49,0,0,0-.12,1.79v12.18a17.46,17.46,0,0,0,.12,1.88,2.31,2.31,0,0,0,.51,1.14,2,2,0,0,0,1.33.66v.27h-7.26v-.27a2,2,0,0,0,1.33-.56,2,2,0,0,0,.51-1.07,16,16,0,0,0,.12-1.84v-9.13h-9Z"/><path d="M430.28,119.14a7.23,7.23,0,0,0-.49,2.13,1.44,1.44,0,0,0,.48,1.12,2,2,0,0,0,1.19.52v.27H425.3v-.27a3.38,3.38,0,0,0,.95-.34,2.34,2.34,0,0,0,.63-.63,14.11,14.11,0,0,0,1.35-2.8l4.86-12.84a6,6,0,0,0,.44-1.75c0-.53-.31-.85-.92-1v-.28h6.68v.28a1,1,0,0,0-.87,1.09,3.58,3.58,0,0,0,.27,1.16l5.17,14.86a9,9,0,0,0,.74,1.56,1.85,1.85,0,0,0,1.1.65v.27h-6.85v-.27a1.89,1.89,0,0,0,1.47-2.12,5,5,0,0,0-1.08-2.89,8.43,8.43,0,0,0-3-2.51,9.18,9.18,0,0,0-4.21-1.06Zm5-13.56-2.74,7.25a9.35,9.35,0,0,1,3.33.6,7.56,7.56,0,0,1,2.75,1.8Z"/></svg>